<svg viewBox="0 0 700 1000" xmlns="http://www.w3.org/2000/svg" id="Layer_1"><defs><style>.cls-1{fill:#202020;}</style></defs><path d="M695.5,276.45c.31-31.68,2.92-173.34,4.5-265.38-4.03-2.53-9.13-5.74-12.88-8.09-27.86-.02-56.2-.02-78.99.05l6.77.11c-40.91.3-35.14.29-72.58-1.45,4.54,1.02-33.15.17-47.52-.22l.55-.18c-21.72-.09-70.93.13-106.79-.14l1.41-.45C269.97-1.4,160.68,1.89,43.05,2.54c0,0-17.01,4.36-23.16,8.94-2.45,1.82-14.09,23.85-15.17,35.04C3.66,53.83.23,85.94.03,92.59c-.25,17.68,1.29,40.62,1.14,60.74l-.1-.3c.12,41.48,1.83,63.45,1.9,101.35l-.24-4.08c-.09,13.4.75,39.77.81,63.94,2.04,45.05,2.4,137.17,4.3,220.93,1.05,131.72-10.21,356.42-4.26,445.32l-.77-3.73c.87,4.69,1.76,9.49,2.75,14.8,3.3,2.53,7.11,5.45,11.01,8.44,55.29-4.57,120.64-5.65,181.5-.36,17.5-1.33,35.81-3.92,53.73-.04,109.61-3.61,247.77-.03,349.49-1.02,11.09.29,24.17.44,37.46.55,16.12-1.24,32.74,3.36,46.58-2.24-3.77,2.39-9.78,2.9-12.38,2.17,7.45.8,14.93-4.17,21.81-7.01,4.77-10.64,3.54-30.19,4.31-34.97.81-20.1.85-24.82-.15-49.32-7.83-200.42-7.2-437.59-3.52-635.43l.11,4.12Z" class="cls-1"></path></svg>