<svg xmlns="http://www.w3.org/2000/svg" version="1.1" viewBox="0 0 2000 700" preserveAspectRatio="none">
  <path d="M1978.11,63.25c-.48-24.31,2.09-40.84-28.17-43.92-157.26-.4-315.79,5.85-473.45,3.58-428.18-7.24-853.46,6.74-1279.32-2.75-33.51.17-86.53-.17-117.89.04-3.98.12-7.79,1.25-11.57,2.59-4.2,1.47-9.6,2.89-14.24,4.23-12.3,3.26-21.6,7.71-23.9,23.43-1.56,8.49-4.27,16.74-6.64,25.17-3.77,11.92-6.78,23.72-4.05,36.17,2.96,14.1,4.44,28.72,6.08,43.1,1.76,10.68-2.42,20.97-2.39,31.64.36,17.26,4.11,33.79,4.12,51.25.77,21.35-1.33,42.64-2.54,63.76-1.46,57.32-1.33,115.16-3.03,172.71-1.64,47.32-1.66,95.12-3.62,142.37-.77,12.13-.49,24.68,5.27,35.6,2.13,4.48,5.34,8.68,9.72,10.89,4.38,2.28,9.39,3.3,14.3,4.28,11.18,2.41,22.84,3.92,34.37,5.57,16.78,2.85,33.64,4.12,50.68,4.93,11.16.65,22.54.97,33.67.5,37.59-2.34,76.07-.21,113.8-1.14,542.92-4.6,1111.32,5.04,1660.2,2.88,11.18-.26,22.36-4.3,29.48-13.1,3.25-4.07,4.85-9.38,5.59-14.59,7.58-198.75-3.56-389.43,3.51-588.99v-.2Z"/>
</svg>